<svg width="101" height="25" viewBox="0 0 101 25" fill="none" xmlns="http://www.w3.org/2000/svg">
<path d="M2.26116 2.30307C3.19212 1.37211 5.0982 1.03037 7.96031 1.98435C10.7286 2.90716 13.9527 4.92823 16.9068 7.88246C19.861 10.8365 21.8821 14.0605 22.8048 16.8289C23.759 19.6911 23.4172 21.5972 22.4861 22.5281C21.5552 23.4591 19.649 23.8009 16.7869 22.8468C14.0187 21.9241 10.7946 19.9029 7.84044 16.9488C4.88628 13.9946 2.86517 10.7707 1.94241 8.00227C0.988381 5.14016 1.33017 3.23413 2.26116 2.30307Z" stroke="#18181B" stroke-width="2.75"/>
<path d="M1.28893 23.5004C1.93708 22.8522 2.58522 22.2039 3.23337 21.5557C2.89219 21.2457 2.68347 20.3976 2.76415 19.4898C2.81717 18.7747 2.99605 18.0166 3.24685 17.2636C4.31096 14.1589 6.39813 11.2822 8.81271 8.85475C11.2402 6.44008 14.1169 4.35285 17.2217 3.28879C18.8726 2.6933 20.9146 2.59824 21.5138 3.2753C22.1911 3.87476 22.096 5.91648 21.5004 7.5674C20.4364 10.6723 18.3491 13.549 15.9345 15.9765C13.507 18.3911 10.6303 20.4783 7.52549 21.5423C6.77253 21.7932 6.01445 21.9721 5.29937 22.0251C4.39157 22.1058 3.54357 21.8971 3.23347 21.5558C2.58526 22.204 1.93704 22.8521 1.28883 23.5003C2.6104 24.7615 4.21616 24.8452 5.50118 24.7677C6.53308 24.6893 7.48542 24.4526 8.39518 24.1512C12.1222 22.8606 15.2073 20.5624 17.8791 17.921C20.5204 15.2493 22.8187 12.1642 24.1093 8.43706C24.6774 6.42574 25.5661 3.85818 23.4583 1.33079C20.9307 -0.776992 18.3636 0.111967 16.3521 0.679899C12.625 1.97054 9.5399 4.2688 6.86817 6.91021C4.2268 9.58192 1.92866 12.667 0.637972 16.394C0.336578 17.3038 0.0999957 18.2561 0.0215679 19.288C-0.0558572 20.573 0.0276867 22.1787 1.28893 23.5004ZM3.23337 21.5557L1.28893 23.5004L3.23347 21.5558L3.23337 21.5557Z" fill="#18181B"/>
<path d="M16.6163 16.6583C18.9594 14.3151 18.9594 10.5162 16.6163 8.17304C14.2731 5.82981 10.4741 5.82981 8.13102 8.17304C5.78787 10.5162 5.78787 14.3151 8.13102 16.6583C10.4741 19.0014 14.2731 19.0014 16.6163 16.6583Z" stroke="#18181B" stroke-width="2.75"/>
<path d="M41.1973 19.0876C41.1973 21.3596 41.4053 21.8716 42.1413 22.4156C42.5413 22.7196 43.1333 22.7996 43.1333 23.3276C43.1333 23.6956 42.9093 24.0156 42.1093 24.0156C41.5013 24.0156 40.5253 23.9356 39.7893 23.9356C38.9413 23.9356 38.3013 24.0156 37.3893 24.0156C36.6533 24.0156 36.4613 23.7116 36.4613 23.3596C36.4613 22.8316 36.9893 22.6396 37.2933 22.4156C38.0773 21.8556 38.2053 21.2796 38.2053 20.4796V4.38362C38.2053 3.71162 37.7573 3.37562 37.1173 3.16762C36.7973 3.03962 36.4773 2.83162 36.4773 2.51162C36.4773 1.91962 37.1333 1.79162 37.9973 1.45562C39.4373 0.879616 40.0453 0.415615 40.5893 0.415615C41.1333 0.415615 41.4053 0.703616 41.4053 1.34362C41.4053 2.35162 41.2293 3.71162 41.2293 12.8316C41.2293 15.0236 41.3413 15.1036 41.4853 15.1036C42.0773 15.1036 46.8293 11.0076 46.8293 10.0796C46.8293 9.50361 45.8213 9.11962 45.8213 8.51162C45.8213 7.98362 46.2373 7.82362 46.6053 7.82362C47.3253 7.82362 47.9813 7.90362 48.7333 7.90362C49.4693 7.90362 50.6533 7.80762 51.1973 7.80762C51.6933 7.80762 52.0933 7.96762 52.0933 8.47962C52.0933 9.08762 51.1493 9.40761 50.3653 9.96762C49.3093 10.7036 46.9733 13.0076 44.6693 14.7676C44.5253 14.8796 44.4933 14.9116 44.4933 14.9916C44.4933 15.0716 44.5573 15.1356 44.6693 15.1676C49.2773 16.8956 50.4133 21.0716 52.5093 22.3356C52.6213 22.4156 53.3413 22.7676 53.3413 23.3116C53.3413 23.5196 53.2613 24.0156 52.7013 24.0156C52.1733 24.0156 50.9733 23.9516 50.2373 23.9516C49.4213 23.9516 48.0293 24.0316 47.5653 24.0316C47.0533 24.0316 46.6853 23.7756 46.6853 23.3436C46.6853 22.8316 47.3893 22.5916 47.3893 21.9836C47.3893 21.3276 46.6853 20.1436 45.5173 18.9596C44.0293 17.4876 42.6213 17.0396 42.1733 17.0396C41.3413 17.0396 41.1973 17.6956 41.1973 19.0876ZM59.4053 1.34362C59.4053 2.35162 59.2773 2.95962 59.2773 6.30362V20.6236C59.2773 21.5996 59.5653 22.0156 60.0453 22.3676C60.5093 22.7036 61.0053 22.7996 61.0053 23.3276C61.0053 23.7116 60.7973 24.0156 59.9973 24.0156C59.3893 24.0156 58.5253 23.9356 57.7893 23.9356C56.9413 23.9356 56.3013 24.0156 55.3893 24.0156C54.6533 24.0156 54.4613 23.7116 54.4613 23.3596C54.4613 22.8316 54.9893 22.6396 55.2933 22.4156C56.0773 21.8556 56.2053 21.2796 56.2053 20.4796V4.38362C56.2053 3.71162 55.7573 3.37562 55.1173 3.16762C54.7973 3.03962 54.4773 2.83162 54.4773 2.51162C54.4773 1.91962 55.1333 1.79162 55.9973 1.45562C57.4373 0.879616 58.0453 0.415615 58.5893 0.415615C59.1333 0.415615 59.4053 0.703616 59.4053 1.34362ZM64.1561 3.96762C64.1561 2.55962 65.5001 1.15162 66.9081 1.15162C67.9161 1.15162 68.7001 1.80762 68.7001 2.83162C68.7001 4.27162 67.2121 5.40762 65.7241 5.40762C64.6681 5.40762 64.1561 4.79961 64.1561 3.96762ZM68.1401 8.47962C68.1401 9.19962 67.9961 10.4156 67.9961 13.4076V20.6236C67.9961 21.5996 68.2841 22.0156 68.7641 22.3676C69.2281 22.7036 69.7241 22.7996 69.7241 23.3276C69.7241 23.7116 69.5161 24.0156 68.7161 24.0156C67.9161 24.0156 67.3881 23.9356 66.5081 23.9356C65.6121 23.9356 65.4201 24.0156 64.1081 24.0156C63.3721 24.0156 63.1801 23.7116 63.1801 23.3596C63.1801 22.8316 63.7081 22.6396 64.0121 22.4156C64.7961 21.8556 64.9241 21.2796 64.9241 20.4796V11.7436C64.9241 10.9916 64.5081 10.5916 63.8521 10.3676C63.5321 10.2076 63.1801 9.99962 63.1801 9.64762C63.1801 9.00762 63.8521 8.94362 64.7161 8.60762C66.1561 8.01562 66.8281 7.55161 67.3241 7.55161C67.8841 7.55161 68.1401 7.83962 68.1401 8.47962ZM80.0916 10.0956C78.3636 10.0956 76.6516 12.3196 76.6516 14.0156V20.5436C76.6516 21.5196 77.0196 21.9356 77.8676 22.3836C78.3476 22.6396 79.1956 22.7516 79.1956 23.3276C79.1956 23.7116 78.9716 24.0156 78.1716 24.0156C77.3876 24.0156 76.3316 23.9356 75.1636 23.9356C74.2676 23.9356 74.0916 24.0156 72.7796 24.0156C72.0436 24.0156 71.8356 23.7116 71.8356 23.3596C71.8356 22.8316 72.3636 22.6396 72.6836 22.4156C73.4516 21.8556 73.5956 21.2796 73.5956 20.4796V11.5036C73.5956 10.7836 73.1316 10.5116 72.4916 10.3036C72.1716 10.1756 71.8836 9.96762 71.8836 9.64762C71.8836 9.02362 72.5716 8.91162 73.4356 8.55962C74.5396 8.09562 75.1156 7.74362 75.6116 7.74362C76.0116 7.74362 76.2676 7.91961 76.3956 8.49562C76.5556 9.34361 76.6196 10.3196 76.8916 10.3196C77.1956 10.3196 78.9876 7.55161 81.8356 7.55161C83.1796 7.55161 84.5716 8.36762 84.5716 10.3836C84.5716 11.7916 83.6596 13.0716 82.4436 13.0716C81.6436 13.0716 81.7396 12.5596 81.5636 11.6636C81.3876 10.7196 80.8916 10.0956 80.0916 10.0956ZM90.4176 15.4236C92.5776 14.8796 95.3456 14.8316 95.6976 14.5916C95.8256 14.4956 95.9856 14.2876 95.9856 13.3436C95.9856 10.9916 95.0096 9.05562 92.5296 9.05562C90.5456 9.05562 89.7136 10.5436 89.4096 11.9516C89.2496 12.6716 88.9936 13.0716 88.2576 13.0716C87.5376 13.0716 86.6096 12.5436 86.6096 11.2796C86.6096 9.50362 88.8336 7.55161 92.5936 7.55161C96.8496 7.55161 99.1056 10.1436 99.1056 13.9836C99.1056 16.1116 98.9296 19.0076 98.9296 20.3196C98.9296 21.0556 99.1856 21.7436 99.8737 21.7436C100.306 21.7436 100.45 21.5836 100.706 21.5836C100.786 21.5836 100.962 21.7116 100.962 22.0796C100.962 23.1676 99.8737 24.1596 98.4816 24.1596C97.2496 24.1596 96.3536 23.6636 95.9056 22.3996C95.8576 22.2396 95.7616 22.1276 95.6496 22.1276C95.5376 22.1276 95.4096 22.3356 95.2816 22.4636C94.2096 23.5356 92.4496 24.3196 90.4976 24.3196C87.7936 24.3196 85.6816 22.8796 85.6816 20.3516C85.6816 17.8556 87.5376 16.1916 90.4176 15.4236ZM95.9696 17.5516C95.9696 16.6716 95.8896 16.3516 95.6656 16.3516C93.9856 16.3516 92.7056 16.4796 91.6336 16.7996C89.6496 17.3916 88.8976 18.6556 88.8976 19.8396C88.8976 21.3916 90.1136 22.2236 91.6496 22.2236C94.0976 22.2236 95.9696 20.4636 95.9696 17.5516Z" fill="#18181B"/>
</svg>
