<svg width="40" height="40" viewBox="0 0 40 40" fill="none" xmlns="http://www.w3.org/2000/svg">
<rect width="40" height="40" rx="20" fill="white"/>
<path d="M9.8875 9.88746C10.8185 8.95649 12.7245 8.61476 15.5867 9.56873C18.355 10.4915 21.579 12.5126 24.5331 15.4668C27.4873 18.4209 29.5084 21.6449 30.4312 24.4132C31.3853 27.2754 31.0435 29.1816 30.1124 30.1124C29.1815 31.0435 27.2754 31.3853 24.4132 30.4312C21.645 29.5084 18.4209 27.4873 15.4668 24.5331C12.5126 21.579 10.4915 18.3551 9.56875 15.5867C8.61472 12.7245 8.95652 10.8185 9.8875 9.88746Z" stroke="black" stroke-width="2.75"/>
<path d="M8.91528 31.0848C9.56342 30.4365 10.2116 29.7883 10.8597 29.1401C10.5185 28.8301 10.3098 27.982 10.3905 27.0742C10.4435 26.3591 10.6224 25.601 10.8732 24.848C11.9373 21.7433 14.0245 18.8666 16.4391 16.4391C18.8666 14.0245 21.7432 11.9372 24.8481 10.8732C26.4989 10.2777 28.541 10.1826 29.1401 10.8597C29.8175 11.4591 29.7223 13.5009 29.1267 15.1518C28.0627 18.2567 25.9755 21.1333 23.5609 23.5609C21.1334 25.9755 18.2566 28.0626 15.1518 29.1267C14.3989 29.3776 13.6408 29.5565 12.9257 29.6095C12.0179 29.6902 11.1699 29.4815 10.8598 29.1402C10.2116 29.7884 9.56339 30.4365 8.91517 31.0847C10.2367 32.3458 11.8425 32.4296 13.1275 32.3521C14.1594 32.2736 15.1118 32.037 16.0215 31.7356C19.7485 30.445 22.8336 28.1468 25.5054 25.5054C28.1468 22.8337 30.445 19.7486 31.7356 16.0214C32.3037 14.0101 33.1925 11.4426 31.0847 8.91518C28.557 6.80739 25.9899 7.69635 23.9785 8.26428C20.2513 9.55492 17.1662 11.8532 14.4945 14.4946C11.8531 17.1663 9.55501 20.2514 8.26431 23.9784C7.96292 24.8882 7.72634 25.8405 7.64791 26.8724C7.57049 28.1574 7.65403 29.7631 8.91528 31.0848ZM10.8597 29.1401L8.91528 31.0848L10.8598 29.1402L10.8597 29.1401Z" fill="black"/>
<path d="M24.2426 24.2426C26.5858 21.8995 26.5858 18.1006 24.2426 15.7574C21.8995 13.4142 18.1005 13.4142 15.7574 15.7574C13.4142 18.1006 13.4142 21.8995 15.7574 24.2426C18.1005 26.5858 21.8995 26.5858 24.2426 24.2426Z" stroke="black" stroke-width="2.75"/>
</svg>
